# xmcd CD database file
#
# Track frame offsets:
#	150
#	13895
#	29861
#	40154
#	58029
#	72262
#	86545
#	93939
#	101462
#	114684
#	125087
#	136482
#	144885
#	161121
#	170821
#	185270
#
# Disc length: 2738 seconds
#
# Revision: 1
# Processed by: cddbd v1.5.1PL0 Copyright (c) Steve Scherf et al.
# Submitted via: CDex 1.50beta8
#
DISCID=e70ab010
DTITLE=Kantri-Antero and Rahtarit - Nuppi ei tutise
DYEAR=2004
DGENRE=Country
TTITLE0=Tinatähti
TTITLE1=Syntynyt rahtaamaan
TTITLE2=Lännen räkäisin räkälä
TTITLE3=Lännen surullisin pikku porttola
TTITLE4=Rahtari never sleeps
TTITLE5=Arkajalka
TTITLE6=Hevonen
TTITLE7=Hirmuinen-Bob
TTITLE8=Minä kadun
TTITLE9=Rekka
TTITLE10=Kilometritehtaalla
TTITLE11=Olen Juudas
TTITLE12=Pakomatkalla taas
TTITLE13=Mun rekassa ei oo jarruja
TTITLE14=Kultakuume
TTITLE15=Rahtarin joulu
EXTD=YEAR: 2004
EXTT0=
EXTT1=
EXTT2=
EXTT3=
EXTT4=
EXTT5=
EXTT6=
EXTT7=
EXTT8=
EXTT9=
EXTT10=
EXTT11=
EXTT12=
EXTT13=
EXTT14=
EXTT15=
PLAYORDER=
